<svg width="25" height="28" viewBox="0 0 25 28" fill="none" xmlns="http://www.w3.org/2000/svg">
<path d="M12.4298 0.000189454C13.0194 -0.0049109 13.5016 0.0922142 14.0204 0.383309C14.457 0.628251 14.8823 0.89166 15.3148 1.1429L19.0462 3.35009L22.2137 5.21222C22.7549 5.53074 23.5213 5.93438 23.9874 6.32369C24.5869 6.82462 24.9591 7.67507 24.9884 8.44293C24.9995 8.73072 24.9947 9.05096 24.9939 9.34602L24.9922 10.8537L24.9931 15.6227L24.9933 18.2867C24.997 19.5643 25.1161 20.5323 24.1751 21.5712C23.9768 21.7939 23.7489 21.9888 23.4977 22.1503C23.1171 22.3952 22.5533 22.6824 22.144 22.9205L18.3264 25.122L15.3785 26.8202L14.5279 27.3156C13.8086 27.7392 13.4221 27.9504 12.5589 27.9955C11.5263 28.0613 10.629 27.3951 9.77561 26.909L6.46975 25.0019L2.67647 22.8164C2.1738 22.5208 1.53878 22.2229 1.11009 21.8474C0.426493 21.249 0.0613589 20.4722 0.0110166 19.5732C-0.00314949 19.32 0.00605915 19.0087 0.00623171 18.751L0.00673393 17.2899L0.00706331 12.5333L0.00684356 9.81464C0.00568266 8.68258 -0.111898 7.61854 0.676197 6.6737C1.14975 6.10597 1.73768 5.82016 2.36868 5.45094L3.84384 4.59361L7.63098 2.36098L9.89188 1.0207C10.7973 0.483335 11.3291 0.0504131 12.4298 0.000189454ZM5.45192 21.2547C5.6892 20.954 5.93272 20.6915 6.18398 20.4047C6.53731 19.9932 6.89406 19.5847 7.25417 19.179L10.6456 15.2856L11.6895 14.0869C11.8795 13.8697 12.17 13.5573 12.3272 13.3274C11.7359 13.3015 11.165 13.2697 10.5756 13.2278C9.45572 13.1481 8.99747 11.7913 9.81477 11.0558C9.97058 10.9144 10.1582 10.8122 10.3619 10.7576C10.6556 10.6775 11.0795 10.6129 11.384 10.5561L13.346 10.1854L15.905 9.69897L17.0408 9.46955C17.4827 9.38327 18.0313 9.21759 18.3741 9.61219C18.7661 10.0636 18.4848 10.7219 18.3855 11.2361C18.2153 12.1171 18.0054 12.9917 17.8156 13.8678L17.3859 15.9022C17.3451 16.0917 17.2639 16.5462 17.2126 16.7076C17.1079 17.2443 17.0406 17.8596 16.5508 18.1849C16.2291 18.3993 15.8345 18.4776 15.4544 18.4021C15.1181 18.3346 14.8002 18.1292 14.6096 17.8441C14.3036 17.386 14.3327 16.0533 14.2844 15.4681C13.8226 15.9589 13.4382 16.4462 12.9968 16.9421L9.86361 20.4955C9.45417 20.9623 9.03822 21.4294 8.63351 21.9002C8.48187 22.0766 8.0344 22.53 7.93108 22.6986C8.12208 22.8257 8.39546 22.9683 8.60122 23.0893L10.4443 24.1529C10.8328 24.384 11.2236 24.6115 11.6165 24.8351C11.9186 25.009 12.2696 25.2714 12.6336 25.2043C12.7321 25.1858 12.8272 25.1528 12.916 25.1067C13.4086 24.8535 13.9881 24.4906 14.4713 24.2109L17.4269 22.4949L20.1978 20.8849C20.6716 20.6101 21.1519 20.3368 21.6207 20.0533C21.7263 19.9893 21.8999 19.8319 21.9679 19.7307C22.0759 19.5699 22.1432 19.3559 22.1536 19.1628C22.1676 18.9017 22.163 18.6333 22.1627 18.3709L22.1618 17.0665L22.161 12.8664L22.1611 10.2504C22.1611 10.0159 22.1588 9.76826 22.1625 9.53498C22.1723 8.94234 22.1633 8.41744 21.5998 8.07198C21.189 7.82009 20.7627 7.5824 20.3471 7.33367L16.1444 4.83809L13.9311 3.52566C13.6001 3.33047 13.2631 3.11407 12.9249 2.93344C12.7459 2.83786 12.5792 2.82501 12.3807 2.83786C12.28 2.84973 12.1176 2.90359 12.0303 2.95448C11.4964 3.26557 10.9603 3.58285 10.4285 3.89716L7.05951 5.90239L4.77832 7.25728C4.30214 7.53528 3.8222 7.80927 3.35607 8.10359C3.26372 8.16191 3.12405 8.29396 3.05918 8.38026C2.78621 8.74341 2.84717 9.32155 2.84651 9.75085L2.84664 11.074L2.84835 15.1416L2.84593 17.9086L2.84644 18.7609C2.84824 19.2779 2.83663 19.6741 3.31737 20.0088C3.57046 20.1851 3.84308 20.3242 4.10805 20.4814C4.55501 20.7358 5.00392 21.0049 5.45192 21.2547Z" fill="#1D66CF"/>
</svg>
