<svg width="315" height="99" viewBox="0 0 315 99" fill="none" xmlns="http://www.w3.org/2000/svg">
<path d="M105.733 42.2965C105.599 41.0491 105.038 40.0778 104.047 39.3827C103.067 38.6876 101.791 38.34 100.219 38.34C99.1148 38.34 98.1674 38.5066 97.377 38.8399C96.5867 39.1732 95.982 39.6255 95.563 40.1968C95.1441 40.7682 94.9298 41.4204 94.9203 42.1536C94.9203 42.7631 95.0584 43.2915 95.3345 43.7391C95.6202 44.1866 96.0058 44.5675 96.4915 44.8818C96.9771 45.1865 97.5151 45.4436 98.1055 45.6531C98.6958 45.8625 99.291 46.0387 99.8909 46.1815L102.633 46.8671C103.738 47.1242 104.8 47.4718 105.818 47.9098C106.847 48.3478 107.766 48.9001 108.575 49.5667C109.394 50.2332 110.042 51.0379 110.518 51.9806C110.994 52.9233 111.232 54.0278 111.232 55.2943C111.232 57.0083 110.794 58.5176 109.918 59.8221C109.042 61.1171 107.775 62.1312 106.118 62.8645C104.471 63.5881 102.476 63.95 100.134 63.95C97.8579 63.95 95.882 63.5977 94.2061 62.893C92.5397 62.1884 91.2352 61.16 90.2925 59.8078C89.3593 58.4557 88.8546 56.8083 88.7785 54.8658H93.9919C94.068 55.8847 94.3823 56.7321 94.9346 57.4082C95.4869 58.0843 96.2058 58.589 97.0913 58.9223C97.9864 59.2555 98.9863 59.4222 100.091 59.4222C101.243 59.4222 102.252 59.2508 103.119 58.908C103.995 58.5557 104.681 58.07 105.176 57.4511C105.671 56.8226 105.923 56.0894 105.933 55.2514C105.923 54.4897 105.699 53.8612 105.261 53.366C104.823 52.8614 104.209 52.4424 103.419 52.1091C102.638 51.7663 101.724 51.4616 100.676 51.195L97.3485 50.338C94.9393 49.719 93.0349 48.7811 91.6351 47.5242C90.2449 46.2577 89.5498 44.577 89.5498 42.4822C89.5498 40.7586 90.0163 39.2494 90.9495 37.9543C91.8922 36.6593 93.173 35.6547 94.7917 34.9406C96.4105 34.2169 98.2435 33.855 100.291 33.855C102.367 33.855 104.185 34.2169 105.747 34.9406C107.318 35.6547 108.551 36.6498 109.446 37.9258C110.342 39.1922 110.803 40.6491 110.832 42.2965H105.733ZM126.683 41.568V45.5674H114.071V41.568H126.683ZM117.184 36.3118H122.355V56.9083C122.355 57.6034 122.46 58.1367 122.669 58.508C122.888 58.8699 123.174 59.1175 123.526 59.2508C123.879 59.3841 124.269 59.4507 124.697 59.4507C125.021 59.4507 125.316 59.4269 125.583 59.3793C125.859 59.3317 126.069 59.2889 126.211 59.2508L127.083 63.293C126.807 63.3882 126.411 63.4929 125.897 63.6072C125.393 63.7215 124.774 63.7881 124.04 63.8072C122.745 63.8452 121.579 63.65 120.541 63.2215C119.503 62.7835 118.679 62.1074 118.07 61.1933C117.47 60.2792 117.175 59.1365 117.184 57.7653V36.3118ZM140.484 63.9357C138.284 63.9357 136.385 63.4786 134.785 62.5645C133.195 61.6408 131.971 60.3363 131.114 58.6509C130.257 56.9559 129.829 54.961 129.829 52.6662C129.829 50.4094 130.257 48.4288 131.114 46.7243C131.981 45.0103 133.19 43.6772 134.742 42.725C136.294 41.7632 138.118 41.2824 140.213 41.2824C141.565 41.2824 142.841 41.5014 144.041 41.9394C145.25 42.3679 146.316 43.0344 147.24 43.9391C148.173 44.8437 148.906 45.9959 149.44 47.3956C149.973 48.7859 150.24 50.4427 150.24 52.3662V53.9517H132.257V50.4665H145.283C145.274 49.4762 145.059 48.5954 144.641 47.8241C144.222 47.0433 143.636 46.4291 142.884 45.9816C142.141 45.534 141.274 45.3103 140.284 45.3103C139.227 45.3103 138.299 45.5674 137.499 46.0816C136.699 46.5862 136.075 47.2528 135.628 48.0812C135.19 48.9001 134.966 49.8 134.956 50.7808V53.8231C134.956 55.0991 135.19 56.1941 135.656 57.1083C136.123 58.0129 136.775 58.708 137.613 59.1936C138.451 59.6698 139.432 59.9078 140.555 59.9078C141.308 59.9078 141.989 59.8031 142.598 59.5936C143.207 59.3746 143.736 59.0556 144.183 58.6366C144.631 58.2176 144.969 57.6987 145.198 57.0797L150.025 57.6225C149.721 58.8985 149.14 60.0126 148.283 60.9648C147.435 61.9075 146.35 62.6407 145.026 63.1644C143.703 63.6786 142.189 63.9357 140.484 63.9357ZM159.784 34.255V63.5072H154.614V34.255H159.784ZM170.272 34.255V63.5072H165.101V34.255H170.272ZM181.902 63.95C180.512 63.95 179.26 63.7024 178.146 63.2073C177.041 62.7026 176.165 61.9598 175.517 60.9791C174.879 59.9983 174.56 58.7889 174.56 57.3511C174.56 56.1132 174.789 55.0896 175.246 54.2802C175.703 53.4708 176.327 52.8233 177.117 52.3376C177.908 51.852 178.798 51.4854 179.788 51.2378C180.788 50.9807 181.821 50.7951 182.888 50.6808C184.173 50.5475 185.216 50.4284 186.016 50.3237C186.816 50.2094 187.396 50.038 187.758 49.8095C188.13 49.5714 188.315 49.2048 188.315 48.7097V48.624C188.315 47.548 187.996 46.7148 187.358 46.1244C186.72 45.534 185.801 45.2388 184.602 45.2388C183.335 45.2388 182.331 45.515 181.588 46.0673C180.855 46.6196 180.36 47.2718 180.102 48.0241L175.275 47.3385C175.656 46.0054 176.284 44.8913 177.16 43.9962C178.036 43.0916 179.107 42.4155 180.374 41.968C181.64 41.5109 183.04 41.2824 184.573 41.2824C185.63 41.2824 186.682 41.4062 187.73 41.6537C188.777 41.9013 189.734 42.3108 190.601 42.8821C191.467 43.4439 192.162 44.2104 192.686 45.1817C193.219 46.153 193.486 47.3671 193.486 48.824V63.5072H188.515V60.4934H188.344C188.03 61.1028 187.587 61.6742 187.016 62.2074C186.454 62.7311 185.744 63.1549 184.887 63.4786C184.04 63.7929 183.045 63.95 181.902 63.95ZM183.245 60.1506C184.283 60.1506 185.183 59.9459 185.944 59.5364C186.706 59.1175 187.292 58.5652 187.701 57.8796C188.12 57.194 188.33 56.4465 188.33 55.6371V53.0518C188.168 53.1851 187.892 53.3089 187.501 53.4232C187.12 53.5374 186.692 53.6374 186.216 53.7231C185.74 53.8088 185.268 53.885 184.802 53.9517C184.335 54.0183 183.93 54.0755 183.588 54.1231C182.816 54.2278 182.126 54.3992 181.516 54.6373C180.907 54.8753 180.426 55.2086 180.074 55.6371C179.722 56.0561 179.545 56.5988 179.545 57.2654C179.545 58.2176 179.893 58.9365 180.588 59.4222C181.283 59.9078 182.169 60.1506 183.245 60.1506ZM198.685 63.5072V41.568H203.698V45.2246H203.927C204.327 43.9581 205.013 42.9821 205.984 42.2965C206.965 41.6014 208.083 41.2538 209.34 41.2538C209.626 41.2538 209.945 41.2681 210.297 41.2966C210.659 41.3157 210.959 41.349 211.197 41.3966V46.153C210.978 46.0768 210.631 46.0101 210.155 45.953C209.688 45.8864 209.236 45.853 208.798 45.853C207.855 45.853 207.007 46.0578 206.255 46.4672C205.512 46.8671 204.927 47.4242 204.498 48.1384C204.07 48.8525 203.856 49.6762 203.856 50.6094V63.5072H198.685ZM214.861 63.5072V34.255H225.83C228.078 34.255 229.963 34.6454 231.487 35.4262C233.02 36.207 234.177 37.3021 234.957 38.7114C235.748 40.1111 236.143 41.7442 236.143 43.6105C236.143 45.4864 235.743 47.1147 234.943 48.4954C234.153 49.8666 232.986 50.9284 231.444 51.6806C229.901 52.4233 228.006 52.7947 225.759 52.7947H217.946V48.3955H225.045C226.359 48.3955 227.435 48.2145 228.273 47.8527C229.111 47.4813 229.73 46.9433 230.13 46.2387C230.539 45.5245 230.744 44.6485 230.744 43.6105C230.744 42.5726 230.539 41.6871 230.13 40.9538C229.72 40.2111 229.097 39.6493 228.259 39.2684C227.421 38.878 226.34 38.6828 225.016 38.6828H220.16V63.5072H214.861ZM229.973 50.2523L237.214 63.5072H231.301L224.188 50.2523H229.973ZM247.105 63.95C245.715 63.95 244.463 63.7024 243.349 63.2073C242.244 62.7026 241.368 61.9598 240.721 60.9791C240.083 59.9983 239.764 58.7889 239.764 57.3511C239.764 56.1132 239.992 55.0896 240.449 54.2802C240.906 53.4708 241.53 52.8233 242.321 52.3376C243.111 51.852 244.001 51.4854 244.992 51.2378C245.991 50.9807 247.025 50.7951 248.091 50.6808C249.376 50.5475 250.419 50.4284 251.219 50.3237C252.019 50.2094 252.6 50.038 252.962 49.8095C253.333 49.5714 253.519 49.2048 253.519 48.7097V48.624C253.519 47.548 253.2 46.7148 252.562 46.1244C251.924 45.534 251.005 45.2388 249.805 45.2388C248.539 45.2388 247.534 45.515 246.791 46.0673C246.058 46.6196 245.563 47.2718 245.306 48.0241L240.478 47.3385C240.859 46.0054 241.487 44.8913 242.363 43.9962C243.239 43.0916 244.311 42.4155 245.577 41.968C246.844 41.5109 248.243 41.2824 249.776 41.2824C250.833 41.2824 251.886 41.4062 252.933 41.6537C253.98 41.9013 254.937 42.3108 255.804 42.8821C256.671 43.4439 257.366 44.2104 257.889 45.1817C258.423 46.153 258.689 47.3671 258.689 48.824V63.5072H253.719V60.4934H253.547C253.233 61.1028 252.79 61.6742 252.219 62.2074C251.657 62.7311 250.948 63.1549 250.091 63.4786C249.243 63.7929 248.248 63.95 247.105 63.95ZM248.448 60.1506C249.486 60.1506 250.386 59.9459 251.148 59.5364C251.909 59.1175 252.495 58.5652 252.904 57.8796C253.323 57.194 253.533 56.4465 253.533 55.6371V53.0518C253.371 53.1851 253.095 53.3089 252.705 53.4232C252.324 53.5374 251.895 53.6374 251.419 53.7231C250.943 53.8088 250.472 53.885 250.005 53.9517C249.538 54.0183 249.134 54.0755 248.791 54.1231C248.02 54.2278 247.329 54.3992 246.72 54.6373C246.11 54.8753 245.63 55.2086 245.277 55.6371C244.925 56.0561 244.749 56.5988 244.749 57.2654C244.749 58.2176 245.096 58.9365 245.791 59.4222C246.487 59.9078 247.372 60.1506 248.448 60.1506ZM269.059 50.6522V63.5072H263.888V41.568H268.83V45.296H269.087C269.592 44.0676 270.397 43.0916 271.501 42.3679C272.615 41.6442 273.991 41.2824 275.629 41.2824C277.143 41.2824 278.462 41.6061 279.586 42.2536C280.719 42.9011 281.595 43.8391 282.214 45.0674C282.842 46.2958 283.152 47.786 283.142 49.5381V63.5072H277.972V50.338C277.972 48.8716 277.591 47.7241 276.829 46.8957C276.077 46.0673 275.034 45.6531 273.701 45.6531C272.796 45.6531 271.992 45.853 271.287 46.253C270.592 46.6434 270.044 47.2099 269.645 47.9527C269.254 48.6954 269.059 49.5953 269.059 50.6522ZM293.112 56.6226L293.098 50.3808H293.926L301.811 41.568H307.852L298.154 52.3662H297.083L293.112 56.6226ZM288.399 63.5072V34.255H293.569V63.5072H288.399ZM302.168 63.5072L295.026 53.5232L298.511 49.8809L308.352 63.5072H302.168Z" fill="white"/>
<g filter="url(#filter0_i_165_2)">
<path d="M43.4585 11.7505C45.0102 11.737 46.2794 11.9943 47.6449 12.7657C48.794 13.4147 49.9134 14.1127 51.0518 14.7784L60.8727 20.6269L69.2097 25.5611C70.6342 26.4051 72.6512 27.4746 73.878 28.5062C75.4561 29.8335 76.4355 32.087 76.5127 34.1216C76.542 34.8842 76.5292 35.7328 76.5272 36.5146L76.5226 40.5097L76.5251 53.1461L76.5255 60.2052C76.5354 63.5904 76.8488 66.1553 74.3722 68.9083C73.8503 69.4985 73.2503 70.0147 72.5893 70.4428C71.5876 71.0917 70.1036 71.8526 69.0263 72.4837L58.9783 78.3169L51.2194 82.8168L48.9806 84.1294C47.0875 85.2519 46.0701 85.8115 43.7983 85.931C41.0805 86.1054 38.7188 84.3402 36.4726 83.052L27.7716 77.9986L17.7877 72.2076C16.4646 71.4244 14.7932 70.635 13.6649 69.6402C11.8657 68.0544 10.9047 65.9962 10.7722 63.614C10.7349 62.9432 10.7591 62.1183 10.7596 61.4355L10.7609 57.5638L10.7618 44.9601L10.7612 37.7563C10.7581 34.7567 10.4486 31.9372 12.5229 29.4336C13.7693 27.9293 15.3168 27.172 16.9775 26.1936L20.8602 23.9219L30.8279 18.006L36.7786 14.4546C39.1617 13.0307 40.5615 11.8836 43.4585 11.7505ZM25.0926 68.0697C25.7172 67.2729 26.3581 66.5773 27.0194 65.8173C27.9494 64.727 28.8883 63.6446 29.8362 62.5696L38.7625 52.253L41.5098 49.0769C42.0101 48.5011 42.7747 47.6733 43.1884 47.0641C41.6321 46.9955 40.1296 46.9114 38.5781 46.8002C35.6307 46.5891 34.4245 42.994 36.5757 41.0451C36.9858 40.6705 37.4795 40.3995 38.0156 40.2549C38.7887 40.0426 39.9044 39.8716 40.7059 39.7211L45.8698 38.7388L52.6051 37.4498L55.5945 36.8419C56.7577 36.6133 58.2016 36.1743 59.1038 37.2199C60.1357 38.416 59.3953 40.1603 59.134 41.5227C58.686 43.8573 58.1335 46.1749 57.6339 48.4962L56.5029 53.8868C56.3956 54.3889 56.1817 55.5932 56.0467 56.021C55.7713 57.4431 55.5941 59.0736 54.305 59.9353C53.4582 60.5036 52.4197 60.711 51.4193 60.511C50.534 60.3321 49.6974 59.7877 49.1958 59.0322C48.3902 57.8184 48.467 54.2872 48.3398 52.7366C47.1242 54.0372 46.1126 55.3283 44.9507 56.6422L36.7042 66.0578C35.6266 67.2948 34.5318 68.5326 33.4666 69.7799C33.0675 70.2473 31.8897 71.4488 31.6178 71.8956C32.1205 72.2324 32.84 72.6101 33.3816 72.9309L38.2326 75.7491C39.2553 76.3616 40.2837 76.9642 41.3178 77.5568C42.1129 78.0176 43.0369 78.7128 43.9948 78.5351C44.2541 78.4859 44.5044 78.3987 44.7381 78.2764C46.0346 77.6056 47.5598 76.6439 48.8316 75.9028L56.6107 71.3558L63.9038 67.0898C65.1508 66.3616 66.4151 65.6375 67.6489 64.8861C67.9268 64.7167 68.3839 64.2997 68.5626 64.0314C68.8471 63.6053 69.0243 63.0383 69.0515 62.5266C69.0883 61.8348 69.0763 61.1235 69.0755 60.4283L69.073 56.972L69.0709 45.8426L69.0713 38.9109C69.0713 38.2897 69.0651 37.6334 69.0751 37.0153C69.1007 35.445 69.0771 34.0541 67.594 33.1387C66.5126 32.4713 65.3907 31.8415 64.2969 31.1824L53.2352 24.5697L47.41 21.0921C46.5387 20.5749 45.6518 20.0015 44.7616 19.5229C44.2905 19.2696 43.8515 19.2356 43.3292 19.2696C43.0641 19.3011 42.6367 19.4438 42.4068 19.5786C41.0018 20.4029 39.5906 21.2437 38.1911 22.0765L29.3238 27.3899L23.3197 30.98C22.0664 31.7166 20.8032 32.4426 19.5764 33.2225C19.3333 33.377 18.9657 33.7269 18.7949 33.9556C18.0765 34.9178 18.2369 36.4498 18.2352 37.5873L18.2355 41.0933L18.24 51.8715L18.2337 59.2034L18.235 61.4616C18.2397 62.8316 18.2092 63.8814 19.4745 64.7683C20.1406 65.2354 20.8582 65.604 21.5556 66.0206C22.732 66.6947 23.9135 67.4076 25.0926 68.0697Z" fill="#1D66CF"/>
</g>
<defs>
<filter id="filter0_i_165_2" x="10.7432" y="11.75" width="65.7998" height="75.5357" filterUnits="userSpaceOnUse" color-interpolation-filters="sRGB">
<feFlood flood-opacity="0" result="BackgroundImageFix"/>
<feBlend mode="normal" in="SourceGraphic" in2="BackgroundImageFix" result="shape"/>
<feColorMatrix in="SourceAlpha" type="matrix" values="0 0 0 0 0 0 0 0 0 0 0 0 0 0 0 0 0 0 127 0" result="hardAlpha"/>
<feOffset dy="1.34286"/>
<feGaussianBlur stdDeviation="1.84643"/>
<feComposite in2="hardAlpha" operator="arithmetic" k2="-1" k3="1"/>
<feColorMatrix type="matrix" values="0 0 0 0 0 0 0 0 0 0 0 0 0 0 0 0 0 0 0.54 0"/>
<feBlend mode="normal" in2="shape" result="effect1_innerShadow_165_2"/>
</filter>
</defs>
</svg>
