<svg width="315" height="98" viewBox="0 0 315 98" fill="none" xmlns="http://www.w3.org/2000/svg">
<path d="M106.947 46.3527L102.233 46.8668C102.1 46.3907 101.867 45.9432 101.533 45.5242C101.21 45.1052 100.772 44.7672 100.219 44.5101C99.6671 44.253 98.991 44.1245 98.1912 44.1245C97.1152 44.1245 96.2105 44.3577 95.4773 44.8243C94.7536 45.2909 94.3966 45.8956 94.4061 46.6383C94.3966 47.2763 94.6299 47.7953 95.106 48.1952C95.5916 48.5951 96.3915 48.9236 97.5056 49.1807L101.248 49.9806C103.324 50.4282 104.866 51.1376 105.876 52.1088C106.894 53.0801 107.409 54.3513 107.418 55.9225C107.409 57.3032 107.004 58.522 106.204 59.579C105.414 60.6264 104.314 61.4454 102.905 62.0357C101.495 62.6261 99.8766 62.9213 98.0483 62.9213C95.3631 62.9213 93.2015 62.3595 91.5637 61.2359C89.9259 60.1027 88.9499 58.5268 88.6356 56.5081L93.6776 56.0225C93.9062 57.0128 94.3918 57.7603 95.1345 58.2649C95.8773 58.7696 96.8438 59.022 98.034 59.022C99.2624 59.022 100.248 58.7696 100.991 58.2649C101.743 57.7603 102.119 57.1366 102.119 56.3938C102.119 55.7654 101.876 55.2464 101.391 54.8369C100.915 54.4275 100.172 54.1133 99.1624 53.8942L95.4202 53.1087C93.3158 52.6706 91.7589 51.9327 90.7496 50.8947C89.7402 49.8473 89.2403 48.5237 89.2498 46.924C89.2403 45.5718 89.6069 44.4006 90.3496 43.4103C91.1019 42.4105 92.1446 41.6392 93.4777 41.0964C94.8203 40.5441 96.3677 40.268 98.1197 40.268C100.691 40.268 102.714 40.8155 104.19 41.9105C105.676 43.0056 106.595 44.4863 106.947 46.3527ZM122.637 40.5536V44.553H110.025V40.5536H122.637ZM113.139 35.2974H118.309V55.8939C118.309 56.589 118.414 57.1223 118.623 57.4936C118.842 57.8555 119.128 58.1031 119.48 58.2364C119.833 58.3697 120.223 58.4363 120.652 58.4363C120.975 58.4363 121.271 58.4125 121.537 58.3649C121.813 58.3173 122.023 58.2745 122.166 58.2364L123.037 62.2785C122.761 62.3738 122.366 62.4785 121.851 62.5928C121.347 62.707 120.728 62.7737 119.995 62.7927C118.7 62.8308 117.533 62.6356 116.495 62.2071C115.457 61.7691 114.634 61.093 114.024 60.1789C113.424 59.2648 113.129 58.1221 113.139 56.7509V35.2974ZM136.438 62.9213C134.239 62.9213 132.339 62.4642 130.739 61.5501C129.149 60.6264 127.925 59.3219 127.068 57.6365C126.211 55.9415 125.783 53.9466 125.783 51.6518C125.783 49.395 126.211 47.4144 127.068 45.7099C127.935 43.9959 129.144 42.6628 130.696 41.7106C132.249 40.7488 134.072 40.268 136.167 40.268C137.519 40.268 138.795 40.487 139.995 40.925C141.204 41.3535 142.271 42.02 143.194 42.9247C144.127 43.8293 144.861 44.9815 145.394 46.3812C145.927 47.7715 146.194 49.4283 146.194 51.3518V52.9373H128.211V49.4521H141.238C141.228 48.4618 141.014 47.581 140.595 46.8097C140.176 46.0289 139.59 45.4147 138.838 44.9672C138.095 44.5196 137.229 44.2959 136.238 44.2959C135.181 44.2959 134.253 44.553 133.453 45.0672C132.653 45.5718 132.03 46.2384 131.582 47.0668C131.144 47.8857 130.92 48.7856 130.911 49.7664V52.8087C130.911 54.0847 131.144 55.1797 131.611 56.0939C132.077 56.9985 132.729 57.6936 133.567 58.1792C134.405 58.6553 135.386 58.8934 136.51 58.8934C137.262 58.8934 137.943 58.7887 138.552 58.5792C139.162 58.3602 139.69 58.0412 140.138 57.6222C140.585 57.2032 140.923 56.6842 141.152 56.0653L145.98 56.6081C145.675 57.884 145.094 58.9981 144.237 59.9504C143.39 60.8931 142.304 61.6263 140.98 62.15C139.657 62.6642 138.143 62.9213 136.438 62.9213ZM155.739 33.2406V62.4928H150.568V33.2406H155.739ZM166.226 33.2406V62.4928H161.056V33.2406H166.226ZM177.856 62.9356C176.466 62.9356 175.214 62.688 174.1 62.1928C172.995 61.6882 172.119 60.9454 171.472 59.9647C170.834 58.9839 170.515 57.7745 170.515 56.3367C170.515 55.0988 170.743 54.0752 171.2 53.2658C171.657 52.4564 172.281 51.8089 173.071 51.3232C173.862 50.8376 174.752 50.471 175.742 50.2234C176.742 49.9663 177.775 49.7806 178.842 49.6664C180.127 49.5331 181.17 49.414 181.97 49.3093C182.77 49.195 183.351 49.0236 183.713 48.7951C184.084 48.557 184.27 48.1904 184.27 47.6953V47.6096C184.27 46.5336 183.951 45.7004 183.313 45.11C182.675 44.5196 181.756 44.2244 180.556 44.2244C179.289 44.2244 178.285 44.5006 177.542 45.0529C176.809 45.6052 176.314 46.2574 176.057 47.0097L171.229 46.3241C171.61 44.991 172.238 43.8769 173.114 42.9818C173.99 42.0772 175.062 41.4011 176.328 40.9536C177.594 40.4965 178.994 40.268 180.527 40.268C181.584 40.268 182.637 40.3917 183.684 40.6393C184.731 40.8869 185.688 41.2964 186.555 41.8677C187.421 42.4295 188.117 43.196 188.64 44.1673C189.174 45.1386 189.44 46.3527 189.44 47.8095V62.4928H184.47V59.479H184.298C183.984 60.0884 183.541 60.6598 182.97 61.193C182.408 61.7167 181.699 62.1405 180.842 62.4642C179.994 62.7785 178.999 62.9356 177.856 62.9356ZM179.199 59.1362C180.237 59.1362 181.137 58.9315 181.899 58.522C182.66 58.1031 183.246 57.5508 183.655 56.8652C184.074 56.1796 184.284 55.4321 184.284 54.6227V52.0374C184.122 52.1707 183.846 52.2945 183.455 52.4088C183.075 52.523 182.646 52.623 182.17 52.7087C181.694 52.7944 181.222 52.8706 180.756 52.9373C180.289 53.0039 179.885 53.061 179.542 53.1087C178.77 53.2134 178.08 53.3848 177.471 53.6229C176.861 53.8609 176.38 54.1942 176.028 54.6227C175.676 55.0417 175.5 55.5844 175.5 56.251C175.5 57.2032 175.847 57.9221 176.542 58.4078C177.237 58.8934 178.123 59.1362 179.199 59.1362ZM194.639 62.4928V40.5536H199.653V44.2102H199.881C200.281 42.9437 200.967 41.9677 201.938 41.2821C202.919 40.587 204.038 40.2394 205.295 40.2394C205.58 40.2394 205.899 40.2537 206.252 40.2822C206.613 40.3013 206.913 40.3346 207.151 40.3822V45.1386C206.932 45.0624 206.585 44.9957 206.109 44.9386C205.642 44.8719 205.19 44.8386 204.752 44.8386C203.809 44.8386 202.962 45.0433 202.209 45.4528C201.467 45.8527 200.881 46.4098 200.453 47.1239C200.024 47.8381 199.81 48.6618 199.81 49.595V62.4928H194.639ZM210.815 62.4928V33.2406H221.785C224.032 33.2406 225.917 33.631 227.441 34.4118C228.974 35.1926 230.131 36.2877 230.912 37.697C231.702 39.0967 232.097 40.7298 232.097 42.5961C232.097 44.472 231.697 46.1003 230.897 47.481C230.107 48.8522 228.941 49.914 227.398 50.6662C225.855 51.4089 223.961 51.7803 221.713 51.7803H213.9V47.381H220.999C222.313 47.381 223.389 47.2001 224.227 46.8383C225.065 46.4669 225.684 45.9289 226.084 45.2243C226.493 44.5101 226.698 43.6341 226.698 42.5961C226.698 41.5582 226.493 40.6727 226.084 39.9394C225.675 39.1967 225.051 38.6349 224.213 38.254C223.375 37.8636 222.294 37.6684 220.971 37.6684H216.114V62.4928H210.815ZM225.927 49.2379L233.168 62.4928H227.255L220.142 49.2379H225.927ZM243.06 62.9356C241.669 62.9356 240.417 62.688 239.303 62.1928C238.199 61.6882 237.323 60.9454 236.675 59.9647C236.037 58.9839 235.718 57.7745 235.718 56.3367C235.718 55.0988 235.947 54.0752 236.404 53.2658C236.861 52.4564 237.484 51.8089 238.275 51.3232C239.065 50.8376 239.955 50.471 240.946 50.2234C241.946 49.9663 242.979 49.7806 244.045 49.6664C245.331 49.5331 246.373 49.414 247.173 49.3093C247.973 49.195 248.554 49.0236 248.916 48.7951C249.287 48.557 249.473 48.1904 249.473 47.6953V47.6096C249.473 46.5336 249.154 45.7004 248.516 45.11C247.878 44.5196 246.959 44.2244 245.759 44.2244C244.493 44.2244 243.488 44.5006 242.745 45.0529C242.012 45.6052 241.517 46.2574 241.26 47.0097L236.432 46.3241C236.813 44.991 237.442 43.8769 238.318 42.9818C239.194 42.0772 240.265 41.4011 241.531 40.9536C242.798 40.4965 244.198 40.268 245.731 40.268C246.788 40.268 247.84 40.3917 248.887 40.6393C249.935 40.8869 250.892 41.2964 251.758 41.8677C252.625 42.4295 253.32 43.196 253.844 44.1673C254.377 45.1386 254.643 46.3527 254.643 47.8095V62.4928H249.673V59.479H249.501C249.187 60.0884 248.744 60.6598 248.173 61.193C247.611 61.7167 246.902 62.1405 246.045 62.4642C245.197 62.7785 244.202 62.9356 243.06 62.9356ZM244.402 59.1362C245.44 59.1362 246.34 58.9315 247.102 58.522C247.864 58.1031 248.449 57.5508 248.859 56.8652C249.278 56.1796 249.487 55.4321 249.487 54.6227V52.0374C249.325 52.1707 249.049 52.2945 248.659 52.4088C248.278 52.523 247.849 52.623 247.373 52.7087C246.897 52.7944 246.426 52.8706 245.959 52.9373C245.493 53.0039 245.088 53.061 244.745 53.1087C243.974 53.2134 243.283 53.3848 242.674 53.6229C242.065 53.8609 241.584 54.1942 241.231 54.6227C240.879 55.0417 240.703 55.5844 240.703 56.251C240.703 57.2032 241.051 57.9221 241.746 58.4078C242.441 58.8934 243.326 59.1362 244.402 59.1362ZM265.013 49.6378V62.4928H259.843V40.5536H264.785V44.2816H265.042C265.546 43.0532 266.351 42.0772 267.456 41.3535C268.57 40.6298 269.946 40.268 271.583 40.268C273.098 40.268 274.416 40.5917 275.54 41.2392C276.673 41.8867 277.549 42.8247 278.168 44.053C278.797 45.2814 279.106 46.7716 279.097 48.5237V62.4928H273.926V49.3236C273.926 47.8572 273.545 46.7097 272.783 45.8813C272.031 45.0529 270.988 44.6387 269.655 44.6387C268.751 44.6387 267.946 44.8386 267.241 45.2386C266.546 45.629 265.999 46.1955 265.599 46.9383C265.208 47.681 265.013 48.5808 265.013 49.6378ZM289.066 55.6082L289.052 49.3664H289.88L297.765 40.5536H303.807L294.108 51.3518H293.037L289.066 55.6082ZM284.353 62.4928V33.2406H289.523V62.4928H284.353ZM298.122 62.4928L290.98 52.5088L294.465 48.8665L304.307 62.4928H298.122Z" fill="#141414"/>
<g filter="url(#filter0_i_78_149)">
<path d="M43.4585 10.7361C45.0102 10.7226 46.2794 10.9799 47.6449 11.7513C48.794 12.4003 49.9134 13.0983 51.0518 13.764L60.8727 19.6125L69.2097 24.5467C70.6342 25.3907 72.6512 26.4602 73.878 27.4918C75.4561 28.8191 76.4355 31.0726 76.5127 33.1072C76.542 33.8698 76.5292 34.7184 76.5272 35.5002L76.5226 39.4953L76.5251 52.1317L76.5255 59.1908C76.5354 62.576 76.8488 65.1409 74.3722 67.8939C73.8503 68.4841 73.2503 69.0003 72.5893 69.4284C71.5876 70.0773 70.1036 70.8382 69.0263 71.4693L58.9783 77.3025L51.2194 81.8024L48.9806 83.115C47.0875 84.2375 46.0701 84.7971 43.7983 84.9165C41.0805 85.091 38.7188 83.3258 36.4726 82.0376L27.7716 76.9842L17.7877 71.1932C16.4646 70.41 14.7932 69.6206 13.6649 68.6258C11.8657 67.04 10.9047 64.9818 10.7722 62.5996C10.7349 61.9288 10.7591 61.1039 10.7596 60.4211L10.7609 56.5494L10.7618 43.9457L10.7612 36.7419C10.7581 33.7423 10.4486 30.9228 12.5229 28.4192C13.7693 26.9149 15.3168 26.1576 16.9775 25.1792L20.8602 22.9075L30.8279 16.9916L36.7786 13.4402C39.1617 12.0163 40.5615 10.8692 43.4585 10.7361ZM25.0926 67.0553C25.7172 66.2585 26.3581 65.5629 27.0194 64.8029C27.9494 63.7126 28.8883 62.6302 29.8362 61.5552L38.7625 51.2386L41.5098 48.0625C42.0101 47.4867 42.7747 46.6589 43.1884 46.0497C41.6321 45.9811 40.1296 45.897 38.5781 45.7858C35.6307 45.5747 34.4245 41.9796 36.5757 40.0307C36.9858 39.6561 37.4795 39.3851 38.0156 39.2404C38.7887 39.0282 39.9044 38.8572 40.7059 38.7067L45.8698 37.7244L52.6051 36.4354L55.5946 35.8275C56.7577 35.5989 58.2016 35.1599 59.1038 36.2055C60.1357 37.4016 59.3953 39.1459 59.134 40.5083C58.686 42.8429 58.1335 45.1604 57.6339 47.4818L56.5029 52.8724C56.3956 53.3745 56.1817 54.5788 56.0467 55.0066C55.7713 56.4287 55.5941 58.0592 54.305 58.9209C53.4582 59.4892 52.4197 59.6966 51.4193 59.4966C50.534 59.3176 49.6974 58.7733 49.1958 58.0178C48.3902 56.804 48.467 53.2728 48.3398 51.7222C47.1242 53.0228 46.1126 54.3139 44.9507 55.6278L36.7042 65.0434C35.6266 66.2804 34.5318 67.5182 33.4666 68.7655C33.0675 69.2329 31.8897 70.4344 31.6178 70.8811C32.1205 71.218 32.84 71.5957 33.3816 71.9164L38.2326 74.7347C39.2553 75.3472 40.2837 75.9498 41.3178 76.5424C42.1129 77.0032 43.0369 77.6984 43.9948 77.5207C44.2541 77.4715 44.5044 77.3843 44.7381 77.262C46.0346 76.5912 47.5598 75.6295 48.8316 74.8884L56.6107 70.3414L63.9038 66.0754C65.1508 65.3472 66.4151 64.6231 67.6489 63.8717C67.9268 63.7023 68.3839 63.2853 68.5626 63.017C68.8471 62.5909 69.0243 62.0239 69.0515 61.5122C69.0883 60.8204 69.0763 60.1091 69.0755 59.4139L69.073 55.9576L69.0709 44.8282L69.0713 37.8965C69.0713 37.2753 69.0651 36.619 69.0751 36.0009C69.1007 34.4306 69.0771 33.0397 67.594 32.1243C66.5126 31.4569 65.3907 30.8271 64.2969 30.168L53.2352 23.5553L47.41 20.0777C46.5387 19.5605 45.6518 18.9871 44.7616 18.5085C44.2905 18.2552 43.8516 18.2211 43.3292 18.2552C43.0641 18.2867 42.6367 18.4294 42.4068 18.5642C41.0018 19.3885 39.5906 20.2293 38.1911 21.0621L29.3238 26.3754L23.3197 29.9655C22.0664 30.7022 20.8032 31.4282 19.5764 32.2081C19.3333 32.3626 18.9657 32.7125 18.7949 32.9412C18.0765 33.9034 18.2369 35.4353 18.2352 36.5729L18.2355 40.0789L18.24 50.8571L18.2337 58.1889L18.235 60.4472C18.2397 61.8172 18.2092 62.867 19.4745 63.7539C20.1406 64.2209 20.8582 64.5896 21.5556 65.0062C22.732 65.6803 23.9135 66.3932 25.0926 67.0553Z" fill="#1D66CF"/>
</g>
<defs>
<filter id="filter0_i_78_149" x="10.7432" y="10.7356" width="65.7998" height="75.5357" filterUnits="userSpaceOnUse" color-interpolation-filters="sRGB">
<feFlood flood-opacity="0" result="BackgroundImageFix"/>
<feBlend mode="normal" in="SourceGraphic" in2="BackgroundImageFix" result="shape"/>
<feColorMatrix in="SourceAlpha" type="matrix" values="0 0 0 0 0 0 0 0 0 0 0 0 0 0 0 0 0 0 127 0" result="hardAlpha"/>
<feOffset dy="1.34286"/>
<feGaussianBlur stdDeviation="1.84643"/>
<feComposite in2="hardAlpha" operator="arithmetic" k2="-1" k3="1"/>
<feColorMatrix type="matrix" values="0 0 0 0 0 0 0 0 0 0 0 0 0 0 0 0 0 0 0.54 0"/>
<feBlend mode="normal" in2="shape" result="effect1_innerShadow_78_149"/>
</filter>
</defs>
</svg>
